<svg width="27" height="27" viewBox="0 0 27 27" fill="none" xmlns="http://www.w3.org/2000/svg">
<path d="M24.2887 23.2485C22.9587 24.8604 21.5486 26.4333 19.4013 26.4593C17.2541 26.4983 16.5651 25.4323 14.1294 25.4323C11.6777 25.4323 10.9246 26.4333 8.88955 26.4983C6.79039 26.5633 5.20401 24.7824 3.85799 23.2095C1.11787 19.9987 -0.981281 14.0841 1.83896 10.1064C3.23305 8.13049 5.7328 6.88258 8.44087 6.84358C10.492 6.81758 12.4469 7.9745 13.7128 7.9745C14.9627 7.9745 17.3342 6.5836 19.818 6.79158C20.8595 6.83058 23.7759 7.12956 25.6507 9.36541C25.5065 9.44341 22.1735 11.0293 22.2056 14.3181C22.2536 18.2438 26.4519 19.5567 26.5 19.5697C26.4519 19.6607 25.827 21.4416 24.2887 23.2485ZM15.1389 2.44987C16.3087 1.37094 18.2476 0.551997 19.85 0.5C20.0583 2.0209 19.3052 3.5548 18.1835 4.64672C17.0778 5.75165 15.2511 6.60959 13.4564 6.4926C13.216 4.9977 14.1134 3.4378 15.1389 2.44987Z" fill="black"/>
</svg>
