<svg width="11" height="18" viewBox="0 0 11 18" fill="none" xmlns="http://www.w3.org/2000/svg">
<path d="M8.75 5.6875H10.5C10.5 3.20513 8.08937 2.07288 6.125 1.81213V0H4.375V1.81213C2.41062 2.07288 0 3.20513 0 5.6875C0 8.05525 2.33275 9.28638 4.375 9.56375V13.9125C3.108 13.6929 1.75 13.0165 1.75 11.8125H0C0 14.0779 2.12187 15.4166 4.375 15.694V17.5H6.125V15.6888C8.08937 15.428 10.5 14.2949 10.5 11.8125C10.5 9.33013 8.08937 8.19788 6.125 7.93713V3.5875C7.28875 3.79662 8.75 4.41088 8.75 5.6875ZM1.75 5.6875C1.75 4.41088 3.21125 3.79662 4.375 3.5875V7.78663C3.17537 7.56525 1.75 6.90987 1.75 5.6875ZM8.75 11.8125C8.75 13.0891 7.28875 13.7034 6.125 13.9125V9.7125C7.28875 9.92163 8.75 10.5359 8.75 11.8125Z" fill="white"/>
</svg>
