<svg width="11" height="19" viewBox="0 0 11 19" fill="none" xmlns="http://www.w3.org/2000/svg">
<path d="M8.75 6.4375H10.5C10.5 3.95513 8.08937 2.82288 6.125 2.56213V0.75H4.375V2.56213C2.41062 2.82288 0 3.95513 0 6.4375C0 8.80525 2.33275 10.0364 4.375 10.3138V14.6625C3.108 14.4429 1.75 13.7665 1.75 12.5625H0C0 14.8279 2.12187 16.1666 4.375 16.444V18.25H6.125V16.4388C8.08937 16.178 10.5 15.0449 10.5 12.5625C10.5 10.0801 8.08937 8.94788 6.125 8.68713V4.3375C7.28875 4.54662 8.75 5.16087 8.75 6.4375ZM1.75 6.4375C1.75 5.16087 3.21125 4.54662 4.375 4.3375V8.53662C3.17537 8.31525 1.75 7.65987 1.75 6.4375ZM8.75 12.5625C8.75 13.8391 7.28875 14.4534 6.125 14.6625V10.4625C7.28875 10.6716 8.75 11.2859 8.75 12.5625Z" fill="#092445"/>
</svg>
