<svg width="26" height="27" viewBox="0 0 26 27" fill="none" xmlns="http://www.w3.org/2000/svg">
<path d="M26 13.5C26 6.32034 20.1797 0.5 13 0.5C5.82034 0.5 0 6.32034 0 13.5C0 19.9886 4.75394 25.3669 10.9688 26.3421V17.2578H7.66797V13.5H10.9688V10.6359C10.9688 7.37781 12.9096 5.57812 15.8791 5.57812C17.3014 5.57812 18.7891 5.83203 18.7891 5.83203V9.03125H17.1498C15.5349 9.03125 15.0312 10.0334 15.0312 11.0615V13.5H18.6367L18.0604 17.2578H15.0312V26.3421C21.2461 25.3669 26 19.9887 26 13.5Z" fill="#1877F2"/>
<path d="M18.0604 17.2578L18.6367 13.5H15.0312V11.0615C15.0312 10.0333 15.5349 9.03125 17.1498 9.03125H18.7891V5.83203C18.7891 5.83203 17.3014 5.57812 15.879 5.57812C12.9096 5.57812 10.9688 7.37781 10.9688 10.6359V13.5H7.66797V17.2578H10.9688V26.3421C11.6407 26.4474 12.3198 26.5002 13 26.5C13.6802 26.5002 14.3593 26.4474 15.0312 26.3421V17.2578H18.0604Z" fill="white"/>
</svg>
