<svg width="27" height="27" viewBox="0 0 27 27" fill="none" xmlns="http://www.w3.org/2000/svg">
<path d="M26.2472 10.954H25.2V10.9H13.5V16.1H20.847C19.7751 19.1271 16.895 21.3 13.5 21.3C9.19245 21.3 5.7 17.8076 5.7 13.5C5.7 9.19245 9.19245 5.7 13.5 5.7C15.4884 5.7 17.2973 6.4501 18.6747 7.67535L22.3517 3.9983C20.0299 1.83445 16.9242 0.5 13.5 0.5C6.32075 0.5 0.5 6.32075 0.5 13.5C0.5 20.6793 6.32075 26.5 13.5 26.5C20.6793 26.5 26.5 20.6793 26.5 13.5C26.5 12.6284 26.4103 11.7775 26.2472 10.954Z" fill="#FFC107"/>
<path d="M1.99902 7.44915L6.27017 10.5815C7.42587 7.7202 10.2248 5.7 13.5001 5.7C15.4885 5.7 17.2974 6.4501 18.6748 7.67535L22.3518 3.9983C20.03 1.83445 16.9243 0.5 13.5001 0.5C8.50682 0.5 4.17652 3.31905 1.99902 7.44915Z" fill="#FF3D00"/>
<path d="M13.5 26.4997C16.8579 26.4997 19.909 25.2146 22.2159 23.1249L18.1924 19.7202C16.8435 20.7465 15.1949 21.3015 13.5 21.2997C10.1187 21.2997 7.24766 19.1436 6.16606 16.1348L1.92676 19.401C4.07826 23.6111 8.44756 26.4997 13.5 26.4997Z" fill="#4CAF50"/>
<path d="M26.2472 10.9543H25.2V10.9004H13.5V16.1004H20.847C20.3342 17.5411 19.4107 18.8 18.1904 19.7215L18.1924 19.7202L22.2159 23.1249C21.9312 23.3836 26.5 20.0004 26.5 13.5004C26.5 12.6287 26.4103 11.7779 26.2472 10.9543Z" fill="#1976D2"/>
</svg>
